<svg xmlns="http://www.w3.org/2000/svg" width="1600" height="640" viewBox="0 0 1600 640" role="img" aria-labelledby="title desc"><title id="title">中国生成式AI法律数据库</title><desc id="desc">全量采集现行法律规定以及公开案例。</desc><rect x="0" y="0" width="1600" height="640" fill="#101e2b"/><rect x="72" y="65" width="42" height="5" fill="#b9d9b6"/><text x="132" y="67.48" font-family="Microsoft YaHei, Noto Sans CJK SC, sans-serif" font-size="21" font-weight="400" fill="#b9d9b6">CHINA / GENERATIVE AI / LAW</text><text x="72" y="208.07999999999998" font-family="Microsoft YaHei, Noto Sans CJK SC, sans-serif" font-size="66" font-weight="700" fill="#f5f1e8">中国生成式AI</text><text x="72" y="302.08" font-family="Microsoft YaHei, Noto Sans CJK SC, sans-serif" font-size="66" font-weight="700" fill="#f5f1e8">法律数据库</text><text x="76" y="392.52" font-family="Microsoft YaHei, Noto Sans CJK SC, sans-serif" font-size="29" font-weight="400" fill="#c4ced5">全量采集现行法律规定以及公开案例。</text><rect x="76" y="471" width="1448" height="1" fill="#40515e"/><text x="76" y="531.24" font-family="Microsoft YaHei, Noto Sans CJK SC, sans-serif" font-size="23" font-weight="400" fill="#dce5e9">201 条案例记录  /  149 份裁判文书正文</text><text x="1140" y="531.24" font-family="Microsoft YaHei, Noto Sans CJK SC, sans-serif" font-size="23" font-weight="400" fill="#b9d9b6">46 项规则及参考资料</text><rect x="1230" y="142" width="220" height="200" fill="#1c3141"/><rect x="1230" y="142" width="4" height="200" fill="#b9d9b6"/><rect x="1258" y="180" width="128" height="2" fill="#6f8792"/><rect x="1258" y="209" width="150" height="2" fill="#6f8792"/><rect x="1258" y="238" width="112" height="2" fill="#6f8792"/><rect x="1258" y="282" width="65" height="2" fill="#6f8792"/><rect x="1255" y="168" width="220" height="200" fill="#1c3141"/><rect x="1255" y="168" width="4" height="200" fill="#b9d9b6"/><rect x="1283" y="206" width="128" height="2" fill="#6f8792"/><rect x="1283" y="235" width="150" height="2" fill="#6f8792"/><rect x="1283" y="264" width="112" height="2" fill="#6f8792"/><rect x="1283" y="308" width="65" height="2" fill="#6f8792"/><rect x="1280" y="194" width="220" height="200" fill="#1c3141"/><rect x="1280" y="194" width="4" height="200" fill="#b9d9b6"/><rect x="1308" y="232" width="128" height="2" fill="#6f8792"/><rect x="1308" y="261" width="150" height="2" fill="#6f8792"/><rect x="1308" y="290" width="112" height="2" fill="#6f8792"/><rect x="1308" y="334" width="65" height="2" fill="#6f8792"/></svg>